<?xml version="1.0" encoding="UTF-8"?>
<svg xmlns="http://www.w3.org/2000/svg" xmlns:xlink="http://www.w3.org/1999/xlink" width="96px" height="96px" viewBox="0 0 96 96" version="1.1">
<g id="surface1">
<path style=" stroke:none;fill-rule:nonzero;fill:rgb(53.72549%,85.098039%,42.745098%);fill-opacity:1;" d="M 51.28125 35.476562 C 51.28125 33.253906 52 31.195312 53.167969 30.085938 C 54.335938 28.972656 55.773438 28.976562 56.941406 30.09375 C 60.355469 28.023438 64.15625 26.941406 68.113281 26.941406 C 78.703125 26.941406 87.785156 34.746094 90.855469 45.980469 C 90.828125 48.636719 88.539062 49.875 87.625 48.246094 C 85.109375 39.222656 77.15625 32.730469 68.113281 32.730469 C 64.824219 32.730469 61.671875 33.558594 58.816406 35.136719 C 58.890625 37.398438 58.214844 39.550781 57.054688 40.753906 C 55.890625 41.957031 54.425781 42.023438 53.222656 40.925781 C 52.023438 39.828125 51.277344 37.742188 51.28125 35.476562 Z M 93.621094 58.621094 C 93.625 55.894531 92.550781 53.488281 90.972656 52.675781 C 89.394531 51.867188 87.679688 52.851562 86.746094 55.097656 C 85.808594 57.34375 85.871094 60.335938 86.894531 62.472656 C 85.691406 65.53125 83.820312 68.296875 81.421875 70.519531 C 77.714844 73.945312 72.992188 75.835938 68.109375 75.835938 C 63.886719 75.835938 59.828125 74.457031 56.375 71.839844 C 54.042969 70.070312 52.105469 67.839844 50.652344 65.269531 C 49.691406 64.34375 47.46875 67.292969 48.277344 69.539062 C 52.628906 77.011719 60.015625 81.625 68.109375 81.625 C 73.582031 81.625 78.917969 79.472656 83.136719 75.566406 C 86.226562 72.703125 88.628906 68.996094 90.136719 64.824219 C 92.101562 64.574219 93.621094 61.875 93.621094 58.621094 Z M 93.621094 58.621094 "/>
<path style=" stroke:none;fill-rule:nonzero;fill:rgb(60%,60%,60%);fill-opacity:1;" d="M 20.996094 70.296875 C 17.554688 62.941406 15.609375 52.558594 15.609375 41.351562 C 15.609375 31.152344 17.238281 21.527344 20.199219 14.242188 C 23.300781 6.605469 27.5 2.398438 32.015625 2.398438 C 36.132812 2.398438 40.058594 5.980469 43.070312 12.480469 C 45.914062 18.621094 47.765625 26.992188 48.277344 36.0625 C 47.058594 34.949219 45.796875 33.953125 44.507812 33.078125 C 43.050781 18.664062 37.90625 8.1875 32.015625 8.1875 C 28.703125 8.1875 25.539062 11.480469 23.109375 17.46875 C 20.535156 23.804688 19.113281 32.289062 19.113281 41.355469 C 19.113281 51.320312 20.898438 60.78125 23.929688 67.09375 C 25.652344 66.808594 27.273438 68.5 27.851562 71.195312 C 28.433594 73.890625 27.828125 76.890625 26.382812 78.46875 C 24.9375 80.046875 23.027344 79.796875 21.75 77.863281 C 20.472656 75.925781 20.164062 72.804688 20.996094 70.296875 Z M 47.816406 39.621094 C 41.664062 33.757812 34.796875 31.429688 29.109375 33.066406 C 27.875 31.0625 25.972656 30.707031 24.496094 32.199219 C 23.023438 33.695312 22.351562 36.65625 22.875 39.378906 C 23.398438 42.101562 24.976562 43.890625 26.703125 43.710938 C 28.433594 43.53125 29.863281 41.4375 30.175781 38.625 C 34.960938 37.460938 40.769531 39.585938 46.0625 44.632812 C 52.53125 50.792969 57.105469 60.359375 58 69.226562 C 59.117188 69.992188 60.332031 70.652344 61.652344 71.164062 C 61.308594 59.640625 55.949219 47.367188 47.816406 39.621094 Z M 48.746094 87.574219 C 45.351562 88.285156 41.5 87.394531 37.714844 85.058594 C 36.625 86.445312 35.472656 87.746094 34.265625 88.949219 C 38.285156 91.996094 42.5 93.597656 46.410156 93.597656 C 47.359375 93.597656 48.289062 93.503906 49.191406 93.3125 C 53.875 92.332031 57.585938 88.847656 59.71875 83.460938 C 58.511719 82.980469 57.320312 82.382812 56.15625 81.675781 C 54.511719 84.835938 51.941406 86.902344 48.746094 87.574219 Z M 44.992188 64.839844 C 46.726562 64.808594 48.222656 62.832031 48.621094 60.050781 C 49.019531 57.265625 48.21875 54.394531 46.675781 53.085938 C 45.132812 51.78125 43.25 52.375 42.113281 54.53125 C 40.972656 56.6875 40.871094 59.847656 41.863281 62.1875 C 41.148438 65.035156 40.097656 67.882812 38.753906 70.597656 C 36.679688 74.792969 33.953125 78.566406 30.871094 81.507812 C 26.5625 85.613281 21.925781 87.816406 17.660156 87.8125 C 17.214844 87.8125 16.773438 87.789062 16.335938 87.742188 C 11.976562 87.257812 8.667969 84.386719 7.011719 79.65625 C 4.078125 71.265625 7.003906 58.644531 13.828125 49.367188 C 13.660156 47.300781 13.558594 45.222656 13.523438 43.140625 L 13.328125 42.695312 C 8.882812 47.96875 5.464844 54.773438 3.703125 61.855469 C 1.832031 69.359375 1.929688 76.707031 3.976562 82.546875 C 6.234375 89 10.539062 92.898438 16.101562 93.515625 C 16.609375 93.570312 17.128906 93.601562 17.648438 93.601562 C 22.527344 93.601562 27.785156 91.128906 32.621094 86.519531 C 38.390625 81.027344 42.816406 73.183594 44.992188 64.839844 Z M 44.992188 64.839844 "/>
</g>
</svg>
